<?xml version="1.0" encoding="UTF-8"?>
<svg id="Capa_1" data-name="Capa 1" xmlns="http://www.w3.org/2000/svg" viewBox="0 0 1080 1080">
  <defs>
    <style>
      .cls-1 {
        fill: #194efe;
      }

      .cls-2 {
        fill: #171717;
      }
    </style>
  </defs>
  <g>
    <path class="cls-2" d="m456.4,531.76h-17.17l-18.35-26.07-9.09,10.08v15.99h-14.35v-63.59h14.35v29.62l26.35-29.62h16.72l-23.99,26.44,25.53,37.16Z"/>
    <path class="cls-2" d="m513.81,531.76h-49.42v-63.59h48.42v11.9h-34.07v13.81h30.62v11.9h-30.62v14.08h35.07v11.9Z"/>
    <path class="cls-2" d="m582.68,531.76h-13.08l-30.8-40.88v40.88h-13.72v-63.59h13.08l30.89,41.06v-41.06h13.63v63.59Z"/>
    <path class="cls-2" d="m623.1,531.76h-26.44v-63.59h26.98c9.81,0,17.84,2.95,24.08,8.86,6.24,5.9,9.36,13.55,9.36,22.94s-3.15,16.96-9.45,22.89c-6.3,5.94-14.48,8.9-24.53,8.9Zm.91-12.08c2.3,0,4.55-.38,6.74-1.14,2.19-.76,4.17-1.92,5.93-3.5,1.76-1.57,3.16-3.6,4.2-6.09s1.57-5.45,1.57-8.9c0-6.06-1.88-10.87-5.63-14.45-3.76-3.57-8.24-5.36-13.45-5.36h-12.36v39.43h12.99Z"/>
    <path class="cls-2" d="m727.13,531.76h-15.36l-5-12.36h-29.44l-5,12.36h-14.81l27.62-63.59h14.81l27.16,63.59Zm-24.98-23.89l-9.99-24.71-10.08,24.71h20.08Z"/>
    <path class="cls-2" d="m775.37,531.76h-41.61v-63.59h14.35v51.06h27.26v12.54Z"/>
    <path class="cls-2" d="m825.52,531.76h-41.61v-63.59h14.35v51.06h27.26v12.54Z"/>
  </g>
  <g>
    <path class="cls-2" d="m430.78,611.91c-9.57,0-17.52-3.04-23.85-9.13-6.33-6.09-9.49-13.72-9.49-22.89s3.23-16.45,9.68-22.54c6.45-6.09,14.52-9.13,24.21-9.13s17.81,3.54,25.07,10.63l-8.36,10.33c-5.09-5.62-10.6-8.43-16.53-8.43-5.39,0-9.96,1.75-13.72,5.24-3.76,3.49-5.63,8.06-5.63,13.71,0,2.39.41,4.73,1.23,7.01.82,2.28,2.03,4.32,3.63,6.14s3.62,3.27,6.04,4.35c2.42,1.08,5.24,1.62,8.45,1.62,5.69,0,11.2-2.36,16.53-7.07l8.45,8.7c-7.93,7.63-16.5,11.45-25.71,11.45Z"/>
    <path class="cls-2" d="m493.46,611.91c-9.63,0-17.73-3.04-24.3-9.13-6.57-6.09-9.86-13.69-9.86-22.8s3.26-16.69,9.77-22.71c6.51-6.03,14.64-9.04,24.39-9.04s17.96,3.04,24.44,9.13c6.48,6.09,9.72,13.63,9.72,22.62s-3.26,16.72-9.77,22.8c-6.51,6.09-14.64,9.13-24.39,9.13Zm.18-12.54c2.42,0,4.78-.42,7.09-1.25,2.3-.84,4.36-2.07,6.18-3.7,1.82-1.63,3.27-3.65,4.36-6.06,1.09-2.41,1.63-5.2,1.63-8.38,0-4.1-.91-7.56-2.72-10.39s-4.18-5.01-7.09-6.54c-2.91-1.53-6.06-2.3-9.45-2.3-5.09,0-9.63,1.79-13.63,5.37-4,3.58-6,8.19-6,13.85s1.97,10.38,5.91,13.98c3.94,3.61,8.51,5.41,13.72,5.41Z"/>
    <path class="cls-2" d="m594.67,611.87h-13.08l-30.8-40.88v40.88h-13.72v-63.59h13.08l30.89,41.06v-41.06h13.63v63.59Z"/>
    <path class="cls-2" d="m636.1,611.87h-14.35v-51.42h-19.35v-12.17h53.15v12.17h-19.44v51.42Z"/>
    <path class="cls-2" d="m718.59,611.87h-16.26l-10.08-18.17h-14.63v18.17h-14.35v-63.59h27.62c4.84,0,9.24.73,13.2,2.2,3.95,1.47,7.12,3.87,9.52,7.2,2.24,3.24,3.36,7.46,3.36,12.67,0,9.75-3.97,16.6-11.9,20.53l13.54,20.99Zm-27.71-30.16c8.3,0,12.45-3.63,12.45-10.9s-4.15-10.63-12.45-10.63h-13.26v21.53h13.26Z"/>
    <path class="cls-2" d="m778.46,611.87h-49.42v-63.59h48.42v11.9h-34.07v13.81h30.62v11.9h-30.62v14.08h35.07v11.9Z"/>
    <path class="cls-2" d="m845.05,611.87h-16.26l-10.08-18.17h-14.63v18.17h-14.35v-63.59h27.62c4.84,0,9.24.73,13.2,2.2,3.95,1.47,7.12,3.87,9.52,7.2,2.24,3.24,3.36,7.46,3.36,12.67,0,9.75-3.97,16.6-11.9,20.53l13.54,20.99Zm-27.71-30.16c8.3,0,12.45-3.63,12.45-10.9s-4.15-10.63-12.45-10.63h-13.26v21.53h13.26Z"/>
    <path class="cls-2" d="m917.83,611.87h-15.36l-5-12.36h-29.44l-5,12.36h-14.81l27.62-63.59h14.81l27.16,63.59Zm-24.98-23.89l-9.99-24.71-10.08,24.71h20.08Z"/>
    <path class="cls-2" d="m946.99,611.91c-10.42,0-19.78-3.39-28.07-10.18l5.72-11.27c4.36,3.23,8.48,5.57,12.35,7.02,3.88,1.44,7.27,2.16,10.18,2.16,6.3,0,9.45-2.04,9.45-6.13,0-2.22-1.09-3.96-3.27-5.21-2.18-1.26-5.45-2.38-9.81-3.37-6.36-1.87-10.72-3.47-13.08-4.82-5.15-3.04-7.72-7.56-7.72-13.58s2.36-10.42,7.09-13.58c4.72-3.15,10.57-4.73,17.54-4.73,8.9,0,16.96,2.33,24.17,7l-5.54,11.61c-7.75-4.17-14.36-6.25-19.81-6.25s-8.02,1.72-8.08,5.17c0,1.93.99,3.55,2.97,4.86,1.98,1.32,5.26,2.53,9.83,3.63l4,1.18c.88.26,2.5.85,4.86,1.75,3.76,1.46,6.71,3.46,8.86,6,2.18,2.51,3.27,5.87,3.27,10.07,0,5.96-2.3,10.56-6.91,13.8-4.6,3.24-10.6,4.86-17.99,4.86Z"/>
  </g>
  <g>
    <polygon class="cls-1" points="361.96 612.02 361.96 468.15 198.33 540.09 361.96 612.02"/>
    <polygon class="cls-1" points="178.48 510.14 361.96 429.39 361.96 413.08 209.77 413.08 178.48 510.14"/>
    <polygon class="cls-1" points="161.57 562.59 127.94 666.92 361.96 666.92 361.96 650.78 161.57 562.59"/>
    <polygon class="cls-1" points="120.56 574.28 139.89 514.4 172.59 413.08 108.12 413.08 108.12 612.83 120.56 574.28"/>
  </g>
</svg>